<svg width="18" height="19" viewBox="0 0 18 19" fill="none" xmlns="http://www.w3.org/2000/svg">
<g clip-path="url(#clip0_1_1832)">
<path d="M9 17.2656C13.1421 17.2656 16.5 13.9078 16.5 9.76562C16.5 5.62349 13.1421 2.26562 9 2.26562C4.85786 2.26562 1.5 5.62349 1.5 9.76562C1.5 13.9078 4.85786 17.2656 9 17.2656Z" stroke="white" stroke-width="1.5" stroke-linecap="round" stroke-linejoin="round"/>
<path d="M11.1225 11.8881C10.7028 12.3074 10.1682 12.5927 9.58636 12.7082C9.00451 12.8237 8.40148 12.7641 7.8535 12.5369C7.30551 12.3098 6.83718 11.9253 6.50768 11.432C6.17818 10.9387 6.00232 10.3588 6.00232 9.76563C6.00232 9.17242 6.17818 8.59254 6.50768 8.09926C6.83718 7.60599 7.30551 7.22147 7.8535 6.99431C8.40148 6.76715 9.00451 6.70754 9.58636 6.82303C10.1682 6.93851 10.7028 7.2239 11.1225 7.64313" stroke="white" stroke-width="1.5" stroke-linecap="round" stroke-linejoin="round"/>
</g>
<defs>
<clipPath id="clip0_1_1832">
<rect width="18" height="18" fill="white" transform="translate(0 0.765625)"/>
</clipPath>
</defs>
</svg>
