<svg width="69" height="16" viewBox="0 0 69 16" fill="none" xmlns="http://www.w3.org/2000/svg">
<mask id="mask0_1_2154" style="mask-type:luminance" maskUnits="userSpaceOnUse" x="0" y="0" width="69" height="16">
<path d="M0.177002 0H68.824V16H0.177002V0Z" fill="white"/>
</mask>
<g mask="url(#mask0_1_2154)">
<mask id="mask1_1_2154" style="mask-type:luminance" maskUnits="userSpaceOnUse" x="0" y="3" width="12" height="10">
<path d="M11.824 3.14801H0.177002V12.854H11.824V3.14801Z" fill="white"/>
</mask>
<g mask="url(#mask1_1_2154)">
<path d="M6.19002 12.854H2.74602C2.69242 12.8533 2.63995 12.8385 2.59378 12.8113C2.54761 12.784 2.50936 12.7452 2.48279 12.6987C2.45623 12.6521 2.44228 12.5994 2.44232 12.5458C2.44236 12.4922 2.45639 12.4395 2.48302 12.393L7.48202 3.49801C7.54069 3.39232 7.62646 3.30417 7.73052 3.24265C7.83457 3.18114 7.95315 3.14847 8.07403 3.14801H11.519C11.753 3.14801 11.899 3.40501 11.783 3.61001L6.78302 12.505C6.72445 12.6106 6.63883 12.6986 6.53496 12.7601C6.4311 12.8216 6.31273 12.8544 6.19202 12.855L6.19002 12.854ZM0.177025 3.70301V6.06001C0.176365 6.13224 0.189939 6.20389 0.216972 6.27087C0.244004 6.33785 0.283965 6.39885 0.334574 6.45039C0.385182 6.50193 0.445447 6.54299 0.511926 6.57124C0.578405 6.59948 0.649797 6.61436 0.722025 6.61501H3.58602L4.95002 8.00001V3.70301C4.95068 3.63078 4.93711 3.55913 4.91008 3.49215C4.88305 3.42517 4.84308 3.36417 4.79248 3.31263C4.74187 3.26109 4.6816 3.22003 4.61512 3.19178C4.54864 3.16354 4.47725 3.14866 4.40503 3.14801H0.722025C0.649797 3.14866 0.578405 3.16354 0.511926 3.19178C0.445447 3.22003 0.385182 3.26109 0.334574 3.31263C0.283965 3.36417 0.244004 3.42517 0.216972 3.49215C0.189939 3.55913 0.176365 3.63078 0.177025 3.70301Z" fill="#888E91"/>
</g>
<path d="M18.901 8.08401L20.991 4.14701H21.974L19.358 8.95501V12H18.445V8.99801L15.824 4.14801H16.823L18.9 8.08301L18.901 8.08401ZM25.335 6.00601C25.837 6.00601 26.266 6.11601 26.625 6.33901C26.983 6.56101 27.256 6.87201 27.446 7.27301C27.636 7.67101 27.731 8.13601 27.731 8.67001V9.22301H23.665C23.675 9.91401 23.848 10.441 24.181 10.803C24.514 11.163 24.983 11.345 25.588 11.345C25.96 11.345 26.29 11.311 26.576 11.243C26.863 11.175 27.16 11.074 27.468 10.942V11.726C27.1836 11.8543 26.8862 11.9515 26.581 12.016C26.2416 12.0813 25.8965 12.1118 25.551 12.107C24.985 12.107 24.491 11.993 24.068 11.764C23.6472 11.5296 23.3065 11.1743 23.09 10.744C22.858 10.296 22.741 9.74801 22.741 9.10001C22.741 8.46601 22.847 7.91801 23.058 7.45601C23.273 6.99101 23.574 6.63201 23.96 6.38201C24.35 6.13201 24.81 6.00601 25.335 6.00601ZM25.325 6.73601C24.848 6.73601 24.469 6.89201 24.186 7.20401C23.903 7.51501 23.735 7.95001 23.681 8.50901H26.796C26.7991 8.19332 26.7428 7.87987 26.63 7.58501C26.5388 7.33294 26.3719 7.11529 26.152 6.96201C25.937 6.81201 25.662 6.73601 25.325 6.73601ZM30.293 12H29.396V3.64301H30.293V12ZM33.225 12H32.328V3.64301H33.225V12ZM40.335 9.04601C40.335 9.52901 40.273 9.96101 40.148 10.34C40.022 10.72 39.842 11.04 39.605 11.302C39.367 11.5643 39.0731 11.7697 38.745 11.903C38.413 12.039 38.035 12.107 37.613 12.107C37.219 12.107 36.857 12.039 36.528 11.903C36.2052 11.7658 35.9157 11.5608 35.679 11.302C35.4318 11.0218 35.2437 10.6946 35.126 10.34C34.991 9.92218 34.9254 9.48504 34.932 9.04601C34.932 8.40101 35.042 7.85401 35.26 7.40201C35.478 6.94801 35.79 6.60201 36.195 6.36601C36.603 6.12601 37.088 6.00601 37.65 6.00601C38.187 6.00601 38.656 6.12601 39.057 6.36601C39.4671 6.61193 39.7945 6.97478 39.997 7.40801C40.223 7.85801 40.335 8.40501 40.335 9.04601ZM35.856 9.04601C35.856 9.51901 35.919 9.92901 36.044 10.276C36.17 10.623 36.363 10.892 36.624 11.082C36.886 11.272 37.222 11.366 37.634 11.366C38.042 11.366 38.377 11.271 38.639 11.082C38.903 10.892 39.099 10.623 39.224 10.276C39.349 9.92901 39.412 9.51901 39.412 9.04601C39.412 8.57601 39.349 8.17201 39.224 7.83201C39.1173 7.51352 38.9147 7.23583 38.644 7.03701C38.382 6.85101 38.044 6.75701 37.629 6.75701C37.016 6.75701 36.567 6.96001 36.281 7.36501C35.998 7.76901 35.856 8.33101 35.856 9.04601ZM46.818 11.989L45.771 8.56201C45.724 8.41601 45.68 8.27201 45.637 8.13201L45.524 7.72501C45.4941 7.6028 45.4635 7.48079 45.432 7.35901C45.4106 7.26069 45.3892 7.16236 45.368 7.06401H45.33C45.2904 7.28624 45.2403 7.50648 45.18 7.72401C45.1459 7.86441 45.1103 8.00442 45.073 8.14401C45.033 8.28701 44.989 8.43201 44.938 8.57901L43.843 11.989H42.838L41.216 6.10301H42.14L42.989 9.35301C43.046 9.56701 43.099 9.78001 43.149 9.99101C43.203 10.199 43.249 10.396 43.284 10.582C43.324 10.765 43.352 10.924 43.37 11.06H43.413C43.4382 10.9531 43.4616 10.8458 43.483 10.738L43.574 10.34C43.6429 10.0621 43.7199 9.78636 43.805 9.51301L44.89 6.10301H45.851L46.9 9.50801C46.953 9.68001 47.005 9.85801 47.056 10.045C47.109 10.231 47.158 10.412 47.201 10.587C47.244 10.759 47.274 10.913 47.291 11.049H47.335C47.349 10.928 47.376 10.777 47.415 10.599C47.455 10.419 47.5 10.222 47.55 10.007C47.603 9.79201 47.659 9.57401 47.716 9.35201L48.576 6.10201H49.483L47.856 11.989H46.818ZM50.572 11.441C50.572 11.191 50.633 11.013 50.755 10.91C50.8779 10.8017 51.0372 10.7439 51.201 10.748C51.383 10.748 51.537 10.802 51.663 10.91C51.788 11.014 51.851 11.19 51.851 11.441C51.851 11.688 51.788 11.869 51.663 11.984C51.5354 12.0956 51.3704 12.1549 51.201 12.15C51.0365 12.1543 50.8767 12.0948 50.755 11.984C50.633 11.869 50.572 11.688 50.572 11.441ZM55.948 6.01701C56.65 6.01701 57.171 6.17401 57.511 6.48901C57.851 6.80401 58.021 7.30701 58.021 7.99901V12H57.371L57.2 11.13H57.157C57.0063 11.3298 56.8331 11.5117 56.641 11.672C56.462 11.816 56.255 11.925 56.018 12C55.785 12.072 55.498 12.107 55.158 12.107C54.801 12.107 54.482 12.045 54.203 11.919C53.9327 11.7987 53.7043 11.6006 53.547 11.35C53.39 11.096 53.311 10.774 53.311 10.383C53.311 9.79601 53.544 9.34501 54.009 9.03001C54.475 8.71501 55.184 8.54301 56.136 8.51401L57.151 8.47101V8.11101C57.151 7.60301 57.042 7.24701 56.824 7.04201C56.605 6.83801 56.297 6.73601 55.9 6.73601C55.592 6.73601 55.298 6.78101 55.02 6.87101C54.74 6.96101 54.475 7.06601 54.224 7.18701L53.95 6.51101C54.215 6.37501 54.52 6.25801 54.863 6.16101C55.2163 6.06338 55.5814 6.01492 55.948 6.01701ZM57.141 9.10001L56.244 9.13701C55.51 9.16601 54.992 9.28601 54.691 9.49701C54.391 9.70801 54.241 10.007 54.241 10.394C54.241 10.731 54.342 10.979 54.547 11.141C54.751 11.301 55.021 11.382 55.357 11.382C55.88 11.382 56.308 11.237 56.641 10.947C56.974 10.657 57.141 10.222 57.141 9.64201V9.10001ZM60.901 6.11301V12H60.008V6.11301H60.901ZM60.465 3.91101C60.612 3.91101 60.737 3.95901 60.841 4.05601C60.948 4.14901 61.002 4.29601 61.002 4.49601C61.002 4.69401 60.948 4.84001 60.841 4.93701C60.7395 5.03278 60.6045 5.08485 60.465 5.08201C60.322 5.08625 60.183 5.03418 60.078 4.93701C59.978 4.84001 59.928 4.69401 59.928 4.49701C59.928 4.29701 59.978 4.14901 60.078 4.05701C60.1828 3.95947 60.3218 3.90704 60.465 3.91101Z" fill="#888E91"/>
</g>
</svg>
