<svg width="18" height="19" viewBox="0 0 18 19" fill="none" xmlns="http://www.w3.org/2000/svg">
<path d="M9 1.76562C4.9616 1.76562 1.6875 5.03973 1.6875 9.07812C1.6875 13.1165 4.9616 16.3906 9 16.3906C13.0384 16.3906 16.3125 13.1165 16.3125 9.07812C16.3125 5.03973 13.0384 1.76562 9 1.76562Z" stroke="#707070" stroke-width="0.75" stroke-miterlimit="10"/>
<path d="M9 1.76562C6.95847 1.76562 5.03894 5.03973 5.03894 9.07812C5.03894 13.1165 6.95847 16.3906 9 16.3906C11.0415 16.3906 12.9611 13.1165 12.9611 9.07812C12.9611 5.03973 11.0415 1.76562 9 1.76562Z" stroke="#707070" stroke-width="0.75" stroke-miterlimit="10"/>
<path d="M4.12488 4.20312C5.46925 5.15762 7.16167 5.7268 9 5.7268C10.8383 5.7268 12.5307 5.15762 13.8751 4.20312M13.8751 13.9534C12.5307 12.9989 10.8383 12.4297 9 12.4297C7.16167 12.4297 5.46925 12.9989 4.12488 13.9534" stroke="#707070" stroke-width="0.75" stroke-linecap="round" stroke-linejoin="round"/>
<path d="M9 1.76562V16.3906M16.3125 9.07812H1.6875" stroke="#707070" stroke-width="0.75" stroke-miterlimit="10"/>
</svg>
