<svg width="20" height="21" viewBox="0 0 20 21" fill="none" xmlns="http://www.w3.org/2000/svg">
<path d="M15.7031 6.64062C15.5887 8.2293 14.4102 9.45312 13.125 9.45312C11.8398 9.45312 10.6594 8.22969 10.5469 6.64062C10.4297 4.98789 11.577 3.82812 13.125 3.82812C14.673 3.82812 15.8203 5.01797 15.7031 6.64062Z" stroke="#707070" stroke-width="0.75" stroke-linecap="round" stroke-linejoin="round"/>
<path d="M13.125 11.9531C10.5793 11.9531 8.13125 13.2176 7.51797 15.6801C7.43672 16.0059 7.64102 16.3281 7.97578 16.3281H18.2746C18.6094 16.3281 18.8125 16.0059 18.7324 15.6801C18.1191 13.1781 15.6711 11.9531 13.125 11.9531Z" stroke="#707070" stroke-width="0.75" stroke-miterlimit="10"/>
<path d="M7.8125 7.34141C7.72109 8.61016 6.76875 9.60938 5.74219 9.60938C4.71562 9.60938 3.76172 8.61055 3.67187 7.34141C3.57851 6.02148 4.50547 5.07812 5.74219 5.07812C6.97891 5.07812 7.90586 6.0457 7.8125 7.34141Z" stroke="#707070" stroke-width="0.75" stroke-linecap="round" stroke-linejoin="round"/>
<path d="M8.04688 12.0313C7.3418 11.7082 6.56524 11.584 5.74219 11.584C3.71094 11.584 1.75391 12.5938 1.26367 14.5605C1.19922 14.8207 1.3625 15.0781 1.62969 15.0781H6.01563" stroke="#707070" stroke-width="0.75" stroke-miterlimit="10" stroke-linecap="round"/>
</svg>
