<svg width="69" height="74" viewBox="0 0 69 74" fill="none" xmlns="http://www.w3.org/2000/svg">
<g filter="url(#filter0_d_1_1715)">
<path d="M25 31C25 24.3726 30.3726 19 37 19C43.6274 19 49 24.3726 49 31C49 37.6274 43.6274 43 37 43C30.3726 43 25 37.6274 25 31Z" fill="white"/>
<g clip-path="url(#clip0_1_1715)">
<mask id="mask0_1_1715" style="mask-type:luminance" maskUnits="userSpaceOnUse" x="28" y="22" width="18" height="18">
<path d="M46 22H28V40H46V22Z" fill="white"/>
</mask>
<g mask="url(#mask0_1_1715)">
<path d="M37.0001 29.9391L40.7126 26.2266L41.7731 27.2871L38.0606 30.9996L41.7731 34.7121L40.7126 35.7726L37.0001 32.0601L33.2876 35.7726L32.2271 34.7121L35.9396 30.9996L32.2271 27.2871L33.2876 26.2266L37.0001 29.9391Z" fill="#384248"/>
</g>
</g>
</g>
<defs>
<filter id="filter0_d_1_1715" x="0" y="0" width="74" height="74" filterUnits="userSpaceOnUse" color-interpolation-filters="sRGB">
<feFlood flood-opacity="0" result="BackgroundImageFix"/>
<feColorMatrix in="SourceAlpha" type="matrix" values="0 0 0 0 0 0 0 0 0 0 0 0 0 0 0 0 0 0 127 0" result="hardAlpha"/>
<feOffset dy="6"/>
<feGaussianBlur stdDeviation="12.5"/>
<feColorMatrix type="matrix" values="0 0 0 0 0 0 0 0 0 0 0 0 0 0 0 0 0 0 0.08 0"/>
<feBlend mode="normal" in2="BackgroundImageFix" result="effect1_dropShadow_1_1715"/>
<feBlend mode="normal" in="SourceGraphic" in2="effect1_dropShadow_1_1715" result="shape"/>
</filter>
<clipPath id="clip0_1_1715">
<rect width="18" height="18" fill="white" transform="translate(28 22)"/>
</clipPath>
</defs>
</svg>
